<svg xmlns="http://www.w3.org/2000/svg" height="130" width="260" version="1" style="font-family:'lucida grande', 'lucida sans unicode', arial, helvetica, sans-serif;font-size:12;">
<style>
.s0{
fill:none;
stroke:#a0a0a0;
}
.s1{
fill:none;
stroke-width:2;
stroke:#c0d0e0;
}
.s2{
fill:#606060;
font-size:11;
text-anchor:middle;
}
</style>  <g transform="translate(-27.063048,-25.90205)"/>
<g transform="translate(-27.063048,-25.90205)"/>
<text x="130" visibility="visible" y="72" style="fill:#707070;text-anchor:middle">{{label}}<tspan x="130" dy="15">{{value}}%</tspan></text>
<path d="M22 72A150 150 0 0 1 234 72m-106 106" visibility="visible" style="fill:none;stroke:#c0d0e0"/>
<g visibility="visible" transform="translate(-17.063048,20.09795)" clip-path="none"/>
<g visibility="visible" transform="translate(-17.063048,20.09795)" clip-path="none"/>
<g transform="translate(-27.063048,-25.90205)"/>
<g transform="translate(-27.063048,-25.90205)">
<path d="M44 93A158 158 0 0 1 83 64l3 7A150 150 0 0 0 49 98Z" fill="#fc172a"/>
<path d="M83 64A158 158 0 0 1 130 49l1 7A150 150 0 0 0 87 70Z" fill="#ffe0e1"/>
<path d="m180 48a158 158 0 0 1 47 15l-3 7A150 150 0 0 0 178 56Z" fill="#e3ffe1"/>
<path d="m227 64a158 158 0 0 1 40 29L261 98A150 150 0 0 0 223 70Z" fill="#2cc71f"/>
<path d="M49 98 42 91" class="s0"/>
<path d="M67 83 61 75" class="s0"/>
<path d="M87 70 82 61" class="s0"/>
<path d="m109 61-3-10" class="s0"/>
<path d="m132 56-2-10" class="s0"/>
<path d="m155 54 0-10" class="s0"/>
<path d="m178 56 2-10" class="s0"/>
<path d="m201 61 3-10" class="s0"/>
<path d="m223 70 5-9" class="s0"/>
<path d="m243 83 6-8" class="s0"/>
<path d="m261 98 7-7" class="s0"/>
<path d="M49 98 42 91" class="s1"/>
<path d="m155 54 0-10" class="s1"/>
<path d="m261 98 7-7" class="s1"/>
<text y="84" transform="matrix(0.70710678,-0.70710678,0.70710678,0.70710678,0,0)" x="-35" class="s2">0</text>
<text y="35" x="155" class="s2">50</text>
<text y="-135" transform="matrix(0.70710678,0.70710678,-0.70710678,0.70710678,0,0)" x="253" class="s2">100</text>
</g>
<g transform="translate(-27.063048,-10024.902)" white-space="nowrap">
<path transform="translate(1,1)" d="m3 0 10 0c3 0 3 0 3 3l0 10c0 3 0 3-3 3L3 16C0 16 0 16 0 13L0 3C0 0 0 0 3 0" style="fill:none;stroke-opacity:0;stroke-width:5;stroke:#000"/>
<path transform="translate(1,1)" d="m3 0 10 0c3 0 3 0 3 3l0 10c0 3 0 3-3 3L3 16C0 16 0 16 0 13L0 3C0 0 0 0 3 0" style="fill:none;stroke-opacity:0;stroke-width:3;stroke:#000"/>
<path transform="translate(1,1)" d="m3 0 10 0c3 0 3 0 3 3l0 10c0 3 0 3-3 3L3 16C0 16 0 16 0 13L0 3C0 0 0 0 3 0" style="fill:none;stroke-opacity:0;stroke:#000"/>
<path d="m3 0 10 0c3 0 3 0 3 3l0 10c0 3 0 3-3 3L3 16C0 16 0 16 0 13L0 3C0 0 0 0 3 0" style="fill-opacity:1;fill:#f9f9f9"/>
</g>
<line x1="128" y1="130" x2="17" y2="69" transform="rotate({{value*1.215}}, 128,130)" style="fill:none;stroke:#000"/>
</svg>
