<svg class="ractive-gauge" xmlns="http://www.w3.org/2000/svg" height="130" width="260" version="1" style="font-family:'lucida grande', 'lucida sans unicode', arial, helvetica, sans-serif;font-size:12;">
<style>
.mark1 {
  fill: none;
  stroke: #a0a0a0;
}
.mark2 {
  fill: none;
  stroke-width: 2;
  stroke: #c0d0e0;
}
.center {
  fill:none;
  stroke:#c0d0e0;
}
.number {
  fill: #606060;
  font-size: 11;
  text-anchor: middle;
}
.low {
  fill: #fc172a;
}
.medlow{
  fill: #ffe0e1;
}

.medhi {
  fill: #e3ffe1;
}
.hi {
  fill: #2cc71f;
}
.needle {
  fill: none;
  stroke: black;
}
.label {
  fill: #707070;
  text-anchor: middle;
}
.value {
  
}
</style>
<path d="M22 72A150 150 0 0 1 234 72m-106 106" visibility="visible" class="center" />
<text x="130" y="72" class="label">{{label}}<tspan class="value" x="130" dy="15">{{value}}%</tspan></text>
<g transform="translate(-27.063048,-25.90205)">
  <path class="low" d="M44 93A158 158 0 0 1 83 64l3 7A150 150 0 0 0 49 98Z" />
  <path class="medlow" d="M83 64A158 158 0 0 1 130 49l1 7A150 150 0 0 0 87 70Z" />
  <path class="medhi" d="m180 48a158 158 0 0 1 47 15l-3 7A150 150 0 0 0 178 56Z" />
  <path class="hi" d="m227 64a158 158 0 0 1 40 29L261 98A150 150 0 0 0 223 70Z" />
  <path d="M49 98 42 91" class="mark1"/>
  <path d="M67 83 61 75" class="mark1"/>
  <path d="M87 70 82 61" class="mark1"/>
  <path d="m109 61-3-10" class="mark1"/>
  <path d="m132 56-2-10" class="mark1"/>
  <path d="m155 54 0-10" class="mark1"/>
  <path d="m178 56 2-10" class="mark1"/>
  <path d="m201 61 3-10" class="mark1"/>
  <path d="m223 70 5-9" class="mark1"/>
  <path d="m243 83 6-8" class="mark1"/>
  <path d="m261 98 7-7" class="mark1"/>
  <path d="M49 98 42 91" class="mark2"/>
  <path d="m155 54 0-10" class="mark2"/>
  <path d="m261 98 7-7" class="mark2"/>
  <text class="number" y="84" transform="matrix(0.70710678,-0.70710678,0.70710678,0.70710678,0,0)" x="-35">0</text>
  <text class="number" y="35" x="155">50</text>
  <text class="number" y="-135" transform="matrix(0.70710678,0.70710678,-0.70710678,0.70710678,0,0)" x="253">100</text>
</g>
<line x1="128" y1="130" x2="17" y2="69" transform="rotate({{value*1.215}}, 128,130)" class="needle"/>
</svg>
